<?xml version="1.0" encoding="iso-8859-1"?>
<!-- Generator: Adobe Illustrator 17.1.0, SVG Export Plug-In . SVG Version: 6.00 Build 0)  -->
<!DOCTYPE svg PUBLIC "-//W3C//DTD SVG 1.1//EN" "http://www.w3.org/Graphics/SVG/1.1/DTD/svg11.dtd">
<svg version="1.1" id="Capa_1" xmlns="http://www.w3.org/2000/svg" xmlns:xlink="http://www.w3.org/1999/xlink" x="0px" y="0px"
	 viewBox="0 0 511.862 511.862" style="enable-background:new 0 0 511.862 511.862;" xml:space="preserve">
<g>
	<path d="M487.867,15.996H23.996C10.764,15.996,0,26.76,0,39.991v391.891c0,11.008,5.87,25.179,13.654,32.963l17.368,17.368
		c7.784,7.784,21.955,13.654,32.963,13.654h383.893c11.007,0,25.179-5.866,32.966-13.646L498.2,464.88
		c7.789-7.781,13.663-21.951,13.663-32.96V39.991C511.862,26.76,501.098,15.996,487.867,15.996z M71.984,31.996h15.991v15.993
		c0,4.418,3.582,8,8,8s8-3.582,8-8V31.996h15.991v15.993c0,4.418,3.582,8,8,8s8-3.582,8-8V31.996h15.991v15.993c0,4.418,3.582,8,8,8
		s8-3.582,8-8V31.996h15.991v15.993c0,4.418,3.582,8,8,8s8-3.582,8-8V31.996h15.991v15.993c0,4.418,3.582,8,8,8s8-3.582,8-8V31.996
		h15.991v15.993c0,4.418,3.582,8,8,8s8-3.582,8-8V31.996h15.991v15.993c0,4.418,3.582,8,8,8s8-3.582,8-8V31.996h15.991v15.993
		c0,4.418,3.582,8,8,8s8-3.582,8-8V31.996h15.991v15.993c0,4.418,3.582,8,8,8s8-3.582,8-8V31.996h15.991v15.993c0,4.418,3.582,8,8,8
		s8-3.582,8-8V31.996h15.991v15.993c0,4.418,3.582,8,8,8s8-3.582,8-8V31.996h15.991v23.975c0,4.417-3.594,8.012-8.011,8.012H79.996
		c-4.417,0-8.012-3.594-8.012-8.012V31.996z M439.877,479.867H71.984V359.892c0-13.223,10.758-23.98,23.98-23.98h319.933
		c13.223,0,23.98,10.757,23.98,23.98V479.867z M495.862,431.92c0,6.636-4.275,16.951-8.971,21.641l-17.357,17.341
		c-3.038,3.035-8.43,5.888-13.657,7.529V359.892c0-22.045-17.935-39.98-39.98-39.98H95.965c-22.045,0-39.98,17.935-39.98,39.98
		V478.43c-5.225-1.642-10.613-4.494-13.649-7.53l-17.367-17.368C20.274,448.838,16,438.519,16,431.882V39.991
		c0-4.409,3.587-7.996,7.996-7.996h31.989v23.975c0,13.24,10.771,24.012,24.012,24.012h351.87c13.24,0,24.011-10.771,24.011-24.012
		V31.996h31.989c4.409,0,7.996,3.587,7.996,7.996V431.92z"/>
	<path d="M426.582,145.182c-17.667-14.986-42.72-27.453-72.45-36.053c-4.244-1.228-8.68,1.218-9.908,5.462
		c-1.228,4.245,1.218,8.681,5.462,9.908c55.632,16.092,90.191,45.002,90.191,75.448c0,22.447-18.396,44.007-51.797,60.708
		c-35.165,17.582-82.096,27.265-132.149,27.265s-96.984-9.683-132.149-27.265c-33.402-16.701-51.798-38.261-51.798-60.708
		c0-22.447,18.396-44.007,51.798-60.708c35.165-17.583,82.096-27.266,132.149-27.266c21.486,0,42.545,1.796,62.593,5.34
		c4.347,0.766,8.501-2.135,9.27-6.486c0.769-4.351-2.135-8.501-6.485-9.27c-20.965-3.705-42.961-5.584-65.378-5.584
		c-52.489,0-101.961,10.283-139.305,28.955c-39.105,19.553-60.642,46.195-60.642,75.019s21.537,55.466,60.642,75.019
		c37.343,18.672,86.816,28.955,139.305,28.955s101.961-10.283,139.304-28.955c39.105-19.553,60.642-46.195,60.642-75.019
		C455.877,180.376,445.747,161.438,426.582,145.182z"/>
	<path d="M127.964,199.947c0,13.231,10.765,23.996,23.996,23.996h207.942c13.231,0,23.995-10.765,23.995-23.996
		s-10.764-23.996-23.995-23.996H151.96C138.729,175.951,127.964,186.716,127.964,199.947z M367.897,199.947
		c0,4.409-3.586,7.996-7.995,7.996H151.96c-4.409,0-7.996-3.587-7.996-7.996s3.587-7.996,7.996-7.996h207.942
		C364.311,191.951,367.897,195.538,367.897,199.947z"/>
	<path d="M375.897,383.893H135.964c-13.231,0-23.996,10.764-23.996,23.996s10.764,23.996,23.996,23.996h239.933
		c13.231,0,23.996-10.764,23.996-23.996S389.129,383.893,375.897,383.893z M311.913,399.893v15.991H199.949v-15.991H311.913z
		 M127.969,407.889c0-4.409,3.587-7.996,7.996-7.996h47.984v15.991h-47.984C131.556,415.884,127.969,412.297,127.969,407.889z
		 M375.897,415.884h-47.984v-15.991h47.984c4.409,0,7.996,3.587,7.996,7.996S380.306,415.884,375.897,415.884z"/>
	<path d="M223.94,367.902h63.982c4.418,0,8-3.582,8-8s-3.582-8-8-8H223.94c-4.418,0-8,3.582-8,8S219.521,367.902,223.94,367.902z"/>
</g>
<g>
</g>
<g>
</g>
<g>
</g>
<g>
</g>
<g>
</g>
<g>
</g>
<g>
</g>
<g>
</g>
<g>
</g>
<g>
</g>
<g>
</g>
<g>
</g>
<g>
</g>
<g>
</g>
<g>
</g>
</svg>
